# xmcd
# Track frame offsets:
# 150
# 14778
# 33147
# 43947
# 56145
# 65634
# 77354
# 90572
# 103793
# 114625
#
# Disc length: 1694 seconds
# Revision: 0
# Processed by: cddbd v1.5.2PL0 Copyright (c) Steve Scherf et al.
# Submitted via: VisiTrax 2.10.3.257 - For more info visit www.synapsa.com
#
DISCID=83069c0a
DTITLE=Sheppard, T. G. - Motels and Memories
DYEAR=1976
DGENRE=Country
TTITLE0=Motels and Memories
TTITLE1=Cowboy in the Rain
TTITLE2=Little Brown Paper Bag Blues
TTITLE3=Hot Lips
TTITLE4=Pigskin Charade
TTITLE5=It Could've Been Nashville
TTITLE6=We Just Live Here (We Don't Love Here Anymore)
TTITLE7=Wednesday Night Poker
TTITLE8=Shame
TTITLE9=Solitary Man
EXTD=
EXTT0=
EXTT1=
EXTT2=
EXTT3=
EXTT4=
EXTT5=
EXTT6=
EXTT7=
EXTT8=
EXTT9=
PLAYORDER=
